<?xml version="1.0" standalone="no"?>
<!DOCTYPE svg PUBLIC "-//W3C//DTD SVG 20010904//EN"
 "http://www.w3.org/TR/2001/REC-SVG-20010904/DTD/svg10.dtd">
<svg version="1.0" xmlns="http://www.w3.org/2000/svg"
 width="1208.000000pt" height="1208.000000pt" viewBox="0 0 1208.000000 1208.000000"
 preserveAspectRatio="xMidYMid meet">
<metadata>
Created by potrace 1.11, written by Peter Selinger 2001-2013
</metadata>
<g transform="translate(0.000000,1208.000000) scale(0.100000,-0.100000)"
fill="#000000" stroke="none">
<path d="M420 6040 l0 -6040 5625 0 5625 0 0 6040 0 6040 -5625 0 -5625 0 0
-6040z m9098 5897 c1390 -2 1996 -7 2003 -14 7 -7 13 -100 16 -250 7 -394 9
-11523 2 -11535 -5 -7 -56 -13 -141 -16 -192 -6 -9211 -5 -10093 1 -407 3
-748 9 -757 12 -16 6 -18 35 -20 303 -2 164 -3 2812 -3 5885 0 5260 1 5589 17
5601 14 10 318 13 1425 15 774 1 1409 3 1410 4 2 3 3831 -1 6141 -6z"/>
<path d="M3650 11843 c-14 -1 -691 -4 -1505 -6 -814 -2 -1488 -7 -1497 -11
-15 -7 -18 -31 -20 -219 -2 -117 -3 -2071 -3 -4344 0 -3377 2 -4134 13 -4145
10 -10 66 -13 235 -13 217 0 223 1 287 26 36 15 84 32 106 38 23 6 46 17 52
24 26 31 31 146 32 793 l0 671 -33 26 c-19 14 -59 33 -89 42 -68 19 -89 39
-59 54 29 16 795 5 966 -14 141 -15 278 -102 340 -217 33 -60 35 -71 35 -200
1 -110 -5 -127 -69 -200 -40 -45 -119 -98 -171 -113 -14 -4 -37 -18 -52 -30
l-27 -23 97 -32 c53 -18 106 -39 116 -46 42 -29 109 -100 148 -156 l40 -60 -5
-125 c-5 -108 -9 -132 -32 -178 -47 -98 -194 -208 -327 -246 -27 -7 -48 -17
-48 -21 0 -9 24 -10 285 -13 180 -2 192 -1 230 20 22 13 60 25 84 29 50 7 107
46 123 84 8 19 13 239 16 713 l4 686 -30 32 c-20 23 -51 39 -103 56 -67 21
-101 44 -67 46 7 0 22 3 33 5 36 8 1177 12 1212 4 19 -5 38 -11 41 -15 10 -10
6 -439 -4 -458 -14 -24 -27 -8 -49 58 -32 99 -52 139 -95 187 -47 54 -110 93
-177 111 -46 11 -368 15 -379 4 -7 -7 -6 -600 1 -629 4 -16 12 -28 19 -29 6 0
19 -2 30 -4 30 -6 112 25 151 57 46 38 81 108 106 211 26 109 38 137 49 116
18 -31 20 -81 20 -404 0 -361 -4 -453 -19 -468 -6 -6 -11 -9 -12 -6 -11 67
-82 260 -109 297 -34 48 -88 78 -153 87 -78 11 -84 6 -87 -83 -11 -303 -2
-492 26 -553 22 -49 37 -52 241 -47 156 3 159 4 228 38 106 52 180 131 245
263 69 138 85 142 77 15 -3 -51 -8 -104 -11 -118 -4 -22 -10 -61 -31 -240 -7
-56 5 -65 83 -64 44 1 77 7 93 17 13 9 50 23 81 31 68 17 114 49 124 85 4 14
8 338 9 720 2 803 13 727 -108 760 -78 21 -97 35 -78 54 9 9 101 12 394 12
398 -1 492 -5 642 -31 171 -29 290 -111 354 -244 24 -51 26 -64 26 -195 0
-136 -1 -141 -29 -193 -41 -73 -111 -139 -198 -187 -50 -28 -74 -47 -76 -62
-2 -13 55 -106 164 -269 240 -357 268 -393 339 -434 22 -13 50 -33 63 -44 22
-20 34 -21 320 -21 163 0 320 1 349 3 l51 4 -5 36 c-3 21 -82 226 -176 457
-93 231 -202 501 -242 600 -97 238 -138 334 -182 417 -31 59 -43 73 -85 94
-54 27 -62 50 -20 61 44 11 680 9 691 -2 17 -17 -4 -36 -50 -46 -24 -5 -57
-15 -73 -21 -34 -14 -58 -62 -45 -92 4 -12 38 -97 74 -191 37 -93 73 -183 80
-200 12 -28 76 -184 185 -457 41 -101 62 -130 82 -110 8 8 108 247 255 607 25
61 53 128 63 150 26 58 39 114 43 181 3 53 1 61 -23 84 -15 14 -55 33 -89 43
-58 17 -83 38 -66 55 9 9 411 12 455 3 51 -10 47 -39 -10 -68 -28 -15 -60 -44
-85 -78 -54 -75 -148 -260 -204 -402 -11 -28 -96 -231 -189 -450 -147 -344
-198 -463 -267 -620 -26 -58 -26 -58 400 -58 l382 0 34 25 c19 14 46 31 60 39
61 30 96 74 157 196 46 90 52 105 152 340 40 94 95 222 122 285 28 63 70 165
95 225 24 61 50 124 58 140 7 17 32 75 55 130 23 55 53 123 65 150 13 28 35
76 49 107 43 99 32 117 261 -437 157 -382 246 -594 270 -650 7 -16 32 -75 55
-130 104 -250 155 -327 250 -375 35 -18 46 -19 82 -10 59 16 141 56 160 77 43
48 51 175 52 863 l0 475 -22 37 c-31 49 -96 106 -148 130 -48 21 -57 43 -21
54 36 12 468 13 494 1 27 -12 98 -102 435 -552 141 -187 276 -362 300 -390
l45 -50 3 80 c4 116 3 611 0 675 -2 30 -7 67 -12 81 -14 42 -65 82 -130 105
-68 22 -82 39 -46 53 24 9 397 12 456 4 47 -7 43 -37 -8 -57 -22 -9 -45 -16
-51 -16 -23 0 -72 -44 -85 -76 -20 -48 -25 -205 -27 -891 -2 -566 -1 -603 16
-620 16 -17 44 -18 337 -18 226 0 322 3 330 11 20 20 23 471 23 4409 -1 3901
-2 4292 -21 4304 -14 9 -7677 22 -7772 14z"/>
<path d="M1758 4673 c-34 -5 -31 25 -32 -335 -1 -188 2 -289 9 -291 5 -3 48
-3 95 -2 98 2 156 23 209 76 109 109 121 329 25 451 -28 36 -89 76 -133 88
-44 12 -136 19 -173 13z"/>
<path d="M4873 4669 c-21 -7 -23 -15 -24 -76 -1 -152 2 -617 5 -620 7 -7 214
-5 246 2 87 19 149 70 188 155 22 47 26 70 27 169 2 117 -8 179 -39 240 -32
61 -105 113 -177 127 -55 10 -202 12 -226 3z"/>
<path d="M9637 4388 c-6 -42 0 -1020 7 -1072 7 -50 47 -107 94 -133 20 -11 71
-33 112 -49 l75 -28 315 0 c339 1 390 5 390 32 0 13 -194 278 -267 367 -5 6
-87 114 -183 240 -96 127 -178 235 -183 240 -15 19 -269 350 -300 392 -39 51
-53 54 -60 11z"/>
<path d="M8191 3955 c-57 -140 -101 -260 -98 -268 4 -10 41 -12 168 -11 222 3
269 6 269 17 0 18 -147 376 -200 490 -7 15 -18 27 -25 27 -6 0 -58 -115 -114
-255z"/>
<path d="M1749 3923 c-10 -2 -19 -13 -22 -23 -3 -10 -4 -151 -3 -312 1 -262 3
-297 19 -321 36 -55 77 -69 164 -55 157 25 247 134 259 315 14 208 -73 345
-241 383 -52 12 -150 19 -176 13z"/>
<path d="M4870 3850 c-22 -22 -23 -31 -22 -265 1 -210 10 -323 28 -360 11 -24
29 -39 64 -54 27 -12 57 -21 67 -21 10 0 34 -10 53 -22 31 -19 50 -22 180 -24
80 -1 155 2 167 7 l23 8 -33 58 c-70 125 -339 537 -405 619 -50 64 -94 82
-122 54z"/>
<path d="M7991 3477 c-47 -112 -60 -185 -41 -241 13 -41 21 -46 111 -77 35
-12 72 -29 83 -38 25 -22 295 -25 352 -4 22 8 65 22 96 32 76 22 109 48 110
86 1 36 -51 185 -95 275 l-32 65 -271 1 -271 2 -42 -101z"/>
<path d="M5288 2535 c-1 -1 -26 -5 -54 -8 -120 -12 -282 -132 -337 -248 -71
-153 -63 -335 22 -467 59 -92 200 -207 351 -286 30 -16 67 -37 82 -48 14 -10
30 -18 35 -18 17 0 158 -100 204 -145 63 -61 83 -105 83 -185 1 -53 -4 -73
-27 -112 -30 -52 -86 -102 -129 -117 -16 -6 -77 -9 -136 -8 -96 2 -113 5 -162
31 -145 75 -267 231 -315 403 -19 69 -38 94 -58 74 -13 -13 -17 -515 -4 -563
10 -36 26 -35 62 2 15 16 43 34 61 40 37 12 105 5 144 -15 82 -42 154 -56 292
-56 155 0 213 15 307 77 154 102 232 246 232 425 -1 89 -10 130 -46 204 -69
141 -166 217 -539 424 -149 82 -233 159 -251 227 -24 92 -4 158 66 217 55 48
110 65 197 62 99 -3 198 -51 275 -134 63 -68 90 -113 136 -229 57 -141 64
-127 62 126 -2 213 -6 311 -14 319 -3 3 -22 -18 -42 -46 -45 -62 -64 -64 -162
-20 -109 50 -179 70 -258 74 -40 2 -75 2 -77 0z"/>
<path d="M8048 2519 c-100 -20 -215 -66 -299 -120 -98 -64 -229 -203 -276
-295 -49 -94 -87 -200 -98 -269 -5 -27 -10 -57 -12 -65 -8 -41 -2 -223 12
-300 11 -66 12 -70 33 -128 73 -201 228 -364 444 -467 127 -61 155 -65 433
-61 l250 3 123 36 c137 41 228 80 229 99 1 7 4 96 7 198 4 102 8 194 10 205 3
11 5 28 5 37 1 28 60 77 108 91 24 7 44 17 44 22 0 17 -68 20 -393 20 -344 -1
-394 -8 -279 -41 69 -19 120 -66 122 -112 6 -105 5 -389 0 -411 -10 -36 -82
-61 -197 -68 -208 -13 -364 74 -448 250 -112 232 -123 663 -24 952 37 108 80
176 158 249 105 96 270 126 430 76 169 -52 290 -167 390 -370 60 -120 65 -107
67 173 0 128 -1 249 -4 270 -6 40 -27 50 -38 18 -3 -11 -19 -34 -35 -50 -37
-41 -81 -41 -191 0 -173 63 -206 70 -351 73 -98 2 -161 -3 -220 -15z"/>
<path d="M1175 2491 c-19 -8 -19 -8 4 -20 12 -7 25 -11 27 -8 9 9 88 -14 116
-35 39 -27 50 -58 54 -153 6 -126 4 -1215 -2 -1265 -10 -83 -41 -115 -121
-126 -62 -8 -91 -22 -72 -35 15 -10 877 -4 939 7 119 20 312 117 396 199 25
24 108 144 130 187 71 139 84 214 80 453 -2 174 -4 196 -28 266 -94 275 -250
426 -523 506 l-90 26 -445 3 c-245 1 -454 -1 -465 -5z m775 -93 c68 -14 145
-55 188 -102 90 -98 156 -260 171 -421 10 -109 5 -424 -9 -510 -38 -247 -172
-411 -353 -433 -80 -11 -130 -4 -162 22 l-29 23 3 639 c2 548 4 749 10 787 1
10 120 7 181 -5z"/>
<path d="M3044 2489 c-9 -15 -1 -19 52 -26 58 -7 97 -25 134 -63 l27 -28 0
-701 0 -702 -36 -39 c-30 -33 -45 -41 -86 -46 -49 -6 -99 -21 -80 -24 6 -1 19
-4 30 -7 25 -6 1181 -12 1252 -6 64 6 65 8 89 203 3 19 11 78 18 131 24 173 6
216 -44 102 -82 -189 -162 -274 -302 -323 -73 -25 -132 -33 -265 -33 -106 0
-114 1 -147 27 -25 19 -37 37 -43 67 -10 50 -9 596 1 606 12 12 93 4 133 -12
93 -39 144 -119 188 -295 14 -52 17 -56 25 -35 17 46 19 810 2 827 -7 7 -12 8
-13 2 -2 -21 -45 -182 -59 -221 -36 -94 -123 -156 -223 -157 l-60 -1 -1 327
c-1 224 3 331 10 338 11 11 222 15 274 5 14 -2 39 -6 55 -9 68 -12 92 -20 135
-41 79 -41 126 -98 160 -195 49 -139 69 -169 71 -103 1 21 3 126 5 234 l4 197
-48 4 c-105 10 -1252 7 -1258 -3z"/>
<path d="M6240 2484 c0 -8 6 -14 13 -15 77 -5 153 -34 175 -67 16 -24 17 -86
20 -731 3 -558 1 -710 -10 -729 -16 -30 -48 -47 -120 -62 -58 -11 -72 -23 -42
-34 27 -10 733 -1 744 10 7 7 -8 15 -42 24 -108 27 -130 57 -138 185 -6 103
-4 1125 3 1218 8 125 34 157 137 177 58 11 68 16 56 28 -4 4 -185 8 -402 9
-335 1 -394 -1 -394 -13z"/>
<path d="M9313 2493 c-24 -9 -13 -22 28 -35 27 -8 65 -35 111 -78 l70 -66 -5
-635 c-3 -422 -9 -646 -16 -670 -22 -71 -73 -114 -145 -122 -38 -4 -65 -21
-53 -33 10 -10 77 -13 272 -13 217 0 238 2 242 16 4 12 -48 33 -80 33 -57 0
-121 91 -132 190 -13 106 -5 1054 9 1067 7 7 45 -36 149 -171 43 -55 84 -108
90 -116 7 -8 55 -71 107 -140 52 -69 98 -127 101 -130 3 -3 54 -70 114 -149
59 -79 114 -151 121 -160 8 -9 91 -117 185 -241 94 -124 177 -228 184 -233 14
-7 27 6 32 33 5 27 12 504 14 1020 l2 505 31 27 c17 15 59 39 94 54 97 42 88
44 -205 49 -146 2 -225 0 -229 -7 -8 -13 14 -28 44 -28 34 0 96 -35 125 -69
36 -43 39 -87 41 -501 1 -379 -2 -406 -41 -360 -34 41 -48 59 -388 515 l-340
455 -260 -1 c-143 -1 -266 -3 -272 -6z"/>
</g>
</svg>
