<?xml version="1.0" standalone="no"?>
<!DOCTYPE svg PUBLIC "-//W3C//DTD SVG 20010904//EN"
 "http://www.w3.org/TR/2001/REC-SVG-20010904/DTD/svg10.dtd">
<svg version="1.0" xmlns="http://www.w3.org/2000/svg"
 width="133.000000pt" height="133.000000pt" viewBox="0 0 133.000000 133.000000"
 preserveAspectRatio="xMidYMid meet">
<metadata>
Created by potrace 1.11, written by Peter Selinger 2001-2013
</metadata>
<g transform="translate(0.000000,133.000000) scale(0.100000,-0.100000)"
fill="#000000" stroke="none">
<path d="M0 665 l0 -665 665 0 665 0 0 665 0 665 -665 0 -665 0 0 -665z m1319
633 c-1 -17 -2 -19 -6 -5 -4 16 -43 17 -639 17 l-634 0 0 -491 0 -490 38 3 37
3 3 94 c2 60 -1 98 -9 107 -17 21 128 20 159 -2 27 -19 28 -49 3 -71 -19 -16
-19 -17 5 -35 28 -23 31 -54 7 -81 -17 -18 -17 -19 7 -16 25 4 25 5 26 99 0
52 -4 101 -9 108 -8 10 5 12 69 10 70 -3 79 -5 82 -23 3 -16 1 -18 -9 -7 -7 6
-26 12 -41 12 -27 0 -28 -2 -28 -45 0 -38 3 -45 19 -45 11 0 23 5 26 10 11 19
25 10 25 -15 0 -22 -3 -24 -19 -15 -11 5 -29 10 -41 10 -19 0 -21 -4 -16 -42
3 -24 5 -44 5 -45 3 -10 58 0 73 14 17 15 18 15 18 -5 0 -20 20 -33 20 -14 0
4 2 45 5 91 2 49 0 92 -6 104 -10 18 -8 19 64 15 105 -5 144 -41 97 -88 l-20
-20 31 -55 c24 -43 36 -55 55 -55 13 0 24 4 24 10 0 10 -40 119 -66 178 l-14
32 46 0 c39 0 44 -2 36 -17 -7 -13 -2 -33 16 -72 l25 -53 19 47 c10 26 17 57
16 69 -2 15 3 22 20 24 20 3 22 1 13 -15 -12 -20 -52 -128 -52 -140 -1 -5 -5
-14 -11 -21 -6 -6 -7 -12 -3 -12 4 0 1 -7 -6 -16 -11 -14 -10 -15 11 -12 21 3
31 18 66 108 56 142 69 144 113 16 38 -110 54 -137 71 -120 8 8 11 45 8 113
l-3 101 27 0 c20 0 41 -16 88 -67 l61 -68 -2 65 c-2 54 0 66 14 68 15 3 16 -1
7 -23 -5 -14 -10 -64 -10 -111 l0 -84 40 0 40 0 3 473 c2 446 2 438 5 -160 l2
-633 -645 0 -645 0 0 655 0 655 645 0 645 0 -1 -22z"/>
<path d="M180 494 c0 -41 2 -45 23 -42 28 4 35 48 12 72 -26 26 -35 19 -35
-30z"/>
<path d="M554 526 c-9 -22 0 -79 12 -83 20 -7 42 24 36 52 -6 31 -39 53 -48
31z"/>
<path d="M1069 493 c-4 -29 4 -149 10 -156 5 -4 36 -7 70 -5 l62 3 -71 83
c-38 46 -71 80 -71 75z"/>
<path d="M882 460 c-13 -35 -9 -50 14 -50 22 0 27 25 11 56 l-14 27 -11 -33z"/>
<path d="M178 423 c-2 -10 -2 -33 0 -50 7 -56 62 -38 62 19 0 21 -6 31 -26 38
-33 13 -32 13 -36 -7z"/>
<path d="M554 383 l1 -48 38 -3 38 -3 -17 33 c-18 37 -43 68 -54 68 -5 0 -7
-21 -6 -47z"/>
<path d="M849 373 c-12 -33 -4 -41 43 -45 48 -3 62 10 49 45 -9 22 -17 27 -46
27 -29 0 -37 -5 -46 -27z"/>
<path d="M108 278 c15 -15 17 -198 2 -198 -5 0 -10 -4 -10 -10 0 -6 31 -10 73
-10 121 0 171 40 162 129 -5 51 -18 69 -62 88 -42 17 -182 18 -165 1z m147
-33 c52 -51 19 -170 -44 -163 -26 3 -26 4 -29 96 l-3 92 26 0 c14 0 37 -11 50
-25z"/>
<path d="M349 271 c14 -25 15 -191 1 -191 -5 0 -10 -4 -10 -10 0 -6 33 -10 79
-10 73 0 79 2 84 22 8 30 1 35 -21 15 -10 -10 -31 -17 -45 -17 -25 0 -27 3
-27 45 0 41 2 45 24 45 14 0 28 -4 31 -10 12 -19 25 -10 25 16 0 21 -3 25 -17
19 -43 -18 -58 -12 -61 28 -4 44 15 56 60 39 25 -9 29 -9 26 6 -3 14 -17 18
-81 20 -75 3 -78 2 -68 -17z"/>
<path d="M547 272 c-35 -39 -10 -100 57 -137 26 -15 25 -46 -2 -56 -18 -7 -28
-4 -48 16 l-24 24 0 -27 c0 -25 4 -27 44 -30 65 -4 106 37 90 90 -3 10 -25 32
-50 48 -45 32 -57 63 -28 74 18 7 50 -8 57 -26 7 -21 17 -4 10 20 -4 18 -12
22 -48 22 -28 0 -47 -6 -58 -18z"/>
<path d="M690 280 c0 -5 5 -10 10 -10 13 0 12 -178 -1 -186 -22 -13 -5 -24 36
-24 25 0 45 5 45 10 0 6 -4 10 -10 10 -6 0 -10 38 -10 95 0 57 4 95 10 95 6 0
10 5 10 10 0 6 -20 10 -45 10 -25 0 -45 -4 -45 -10z"/>
<path d="M862 273 c-39 -19 -52 -40 -56 -91 -6 -71 43 -122 118 -122 63 0 83
14 88 59 l4 41 -46 0 c-31 0 -40 -3 -31 -9 21 -13 23 -47 5 -65 -21 -22 -31
-20 -59 9 -44 44 -27 164 26 178 27 7 68 -8 75 -28 10 -24 22 -17 17 9 -8 38
-83 48 -141 19z"/>
<path d="M1038 277 c16 -19 18 -183 2 -202 -11 -13 -7 -15 20 -15 27 0 30 2
21 14 -7 9 -11 42 -9 88 l3 73 74 -88 c40 -48 75 -86 76 -85 2 2 6 48 9 103 4
55 12 105 18 112 8 10 3 13 -22 13 -27 0 -30 -2 -21 -14 7 -8 11 -37 9 -69
l-3 -55 -55 67 c-49 58 -60 66 -95 69 -32 3 -37 1 -27 -11z"/>
</g>
</svg>
