<?xml version="1.0" standalone="no"?>
<!DOCTYPE svg PUBLIC "-//W3C//DTD SVG 20010904//EN"
 "http://www.w3.org/TR/2001/REC-SVG-20010904/DTD/svg10.dtd">
<svg version="1.0" xmlns="http://www.w3.org/2000/svg"
 width="900.000000pt" height="966.000000pt" viewBox="0 0 900.000000 966.000000"
 preserveAspectRatio="xMidYMid meet">
<metadata>
Created by potrace 1.10, written by Peter Selinger 2001-2011
</metadata>
<g transform="translate(0.000000,966.000000) scale(0.100000,-0.100000)"
fill="#000000" stroke="none">
<path d="M0 4830 l0 -4830 4500 0 4500 0 0 4830 0 4830 -4500 0 -4500 0 0
-4830z m8881 4710 c19 -11 19 -74 19 -4721 l0 -4709 -26 -10 c-16 -7 -1565 -9
-4400 -8 -3876 3 -4376 5 -4384 18 -11 18 -14 9399 -2 9416 4 6 14 14 22 17
29 11 8750 8 8771 -3z"/>
<path d="M170 9451 c-14 -27 -14 -6925 0 -6952 10 -18 23 -19 193 -19 149 0
187 3 205 16 12 8 48 22 79 30 107 28 98 -28 98 623 l0 569 -24 26 c-15 16
-40 28 -68 32 -24 3 -51 13 -59 22 -14 14 -14 16 1 25 27 15 716 2 800 -15
121 -25 203 -82 256 -180 20 -36 23 -58 23 -138 1 -86 -2 -99 -25 -135 -15
-22 -37 -49 -50 -61 -32 -27 -97 -64 -114 -64 -8 0 -27 -11 -42 -24 l-28 -24
30 -7 c17 -3 45 -13 63 -21 18 -8 38 -14 45 -15 27 -1 105 -69 142 -125 l40
-59 -1 -105 c0 -118 -11 -147 -88 -228 -42 -44 -149 -102 -216 -117 -68 -15
-1 -24 190 -24 174 -1 187 0 203 19 9 11 29 20 45 20 49 0 91 20 112 55 19 31
20 47 20 583 l0 550 -25 30 c-18 22 -40 33 -85 43 -45 10 -60 17 -58 29 3 13
64 15 515 18 502 2 512 2 523 -18 7 -12 9 -86 8 -197 -3 -153 -5 -178 -19
-181 -12 -2 -20 14 -33 65 -31 118 -90 187 -196 227 -36 13 -72 16 -185 14
l-140 -3 -3 -254 c-2 -179 1 -258 9 -267 16 -20 63 -17 112 5 71 33 105 85
132 201 24 108 23 104 40 90 13 -11 15 -62 15 -344 0 -311 -5 -377 -28 -351
-4 6 -16 44 -26 85 -36 145 -85 203 -182 216 -43 5 -58 3 -65 -7 -10 -16 -12
-367 -3 -445 4 -28 15 -62 25 -75 18 -24 21 -24 161 -23 139 1 145 2 210 33
99 47 165 125 215 254 12 31 23 46 33 44 18 -3 16 -67 -5 -192 -7 -44 -16
-110 -19 -147 -6 -66 -6 -68 19 -74 36 -9 116 1 125 16 4 7 29 16 56 21 61 11
96 36 106 77 5 18 7 280 6 583 l-3 551 -23 18 c-13 11 -42 22 -66 25 -54 8
-71 19 -63 39 6 14 42 16 319 16 495 0 641 -27 737 -136 74 -84 85 -115 85
-239 0 -93 -3 -116 -21 -150 -38 -72 -92 -124 -159 -156 -36 -16 -68 -37 -71
-45 -3 -8 8 -33 23 -55 16 -22 36 -51 44 -64 8 -13 37 -56 65 -97 27 -40 54
-81 60 -90 23 -38 91 -137 133 -191 29 -39 57 -63 83 -74 22 -8 44 -24 50 -34
9 -18 24 -19 292 -17 l282 3 -2 30 c-2 28 -13 59 -48 140 -12 29 -45 110 -107
265 -17 41 -36 89 -43 105 -7 17 -28 66 -45 110 -17 44 -38 94 -45 110 -7 17
-23 55 -34 85 -12 30 -26 64 -30 75 -5 11 -16 40 -26 65 -44 112 -114 260
-132 279 -9 9 -30 21 -47 26 -21 7 -31 17 -31 30 0 19 8 20 284 23 175 1 288
-1 294 -7 7 -7 6 -16 -3 -26 -7 -8 -15 -14 -17 -11 -2 2 -25 -2 -51 -8 -65
-17 -83 -48 -59 -105 9 -23 24 -60 33 -83 9 -24 22 -56 29 -73 7 -16 20 -50
30 -75 9 -25 23 -58 30 -75 7 -16 27 -66 45 -110 17 -44 37 -93 45 -110 7 -16
20 -50 30 -75 9 -25 23 -58 30 -75 8 -16 16 -40 20 -52 4 -14 14 -23 25 -23
11 0 21 9 25 23 5 18 109 270 171 415 102 238 107 251 108 313 1 53 -2 62 -24
79 -14 11 -44 22 -67 26 -44 6 -69 26 -58 44 8 13 374 13 395 0 20 -12 2 -44
-28 -48 -51 -8 -122 -117 -210 -322 -8 -19 -21 -48 -28 -63 -8 -16 -14 -33
-14 -38 0 -5 -13 -37 -29 -71 -15 -35 -70 -162 -121 -283 -51 -121 -99 -236
-108 -255 -16 -36 -33 -77 -60 -140 -8 -19 -21 -48 -29 -63 -30 -58 -33 -57
316 -57 303 0 321 1 330 19 6 10 28 26 49 34 65 26 110 96 202 317 29 69 66
153 81 188 16 34 29 66 29 71 0 5 6 22 14 38 8 15 21 44 29 63 29 69 50 115
64 142 7 14 13 31 13 37 0 6 13 39 29 73 15 35 57 131 91 213 35 83 67 154 71
159 13 15 34 -10 58 -71 13 -32 29 -73 37 -90 30 -69 43 -102 89 -213 26 -63
53 -128 60 -145 8 -16 35 -82 60 -145 26 -63 53 -130 61 -148 8 -17 20 -47 28
-65 8 -17 31 -72 51 -122 96 -231 122 -273 194 -309 l47 -24 65 20 c35 11 73
29 85 40 45 41 48 66 52 568 2 261 1 489 -3 507 -8 46 -83 124 -131 138 -28 8
-39 16 -39 30 0 19 9 20 185 23 102 2 199 0 216 -3 26 -4 45 -24 108 -109 42
-57 84 -113 94 -124 9 -12 109 -145 221 -296 113 -151 209 -273 213 -270 4 3
8 149 8 325 0 276 -2 324 -16 351 -17 33 -52 67 -69 68 -5 0 -27 5 -47 11 -27
7 -38 15 -38 29 0 19 8 20 199 20 110 0 202 -4 205 -9 13 -20 -8 -41 -45 -47
-52 -9 -85 -36 -101 -82 -9 -27 -13 -191 -15 -608 -4 -517 -2 -573 12 -588 14
-14 50 -16 274 -16 186 0 260 3 269 12 9 9 12 798 12 3489 0 3161 -1 3477 -16
3483 -9 3 -1952 6 -4319 6 -4245 0 -4304 0 -4315 -19z"/>
<path d="M1045 3718 c-3 -13 -4 -126 -3 -253 l3 -230 72 -3 c77 -3 124 13 179
61 43 37 74 116 74 191 0 160 -94 256 -251 256 -63 0 -69 -2 -74 -22z"/>
<path d="M3545 3727 c-3 -7 -4 -134 -3 -282 l3 -270 95 -3 c109 -3 159 11 208
59 55 54 72 107 71 223 0 150 -37 222 -135 266 -52 24 -231 29 -239 7z"/>
<path d="M7377 3533 c-12 -11 -8 -854 3 -895 15 -54 52 -92 102 -107 24 -7 61
-22 83 -32 37 -19 59 -20 325 -17 328 3 314 -2 236 95 -43 54 -315 412 -609
800 -67 89 -125 162 -128 163 -3 0 -9 -3 -12 -7z"/>
<path d="M6294 3353 c-3 -10 -39 -97 -79 -193 -86 -205 -91 -220 -73 -221 38
-2 344 3 347 6 3 4 -4 26 -34 100 -7 17 -27 66 -45 110 -89 219 -102 242 -116
198z"/>
<path d="M1047 3133 c-4 -3 -7 -115 -7 -247 0 -215 2 -245 18 -276 23 -41 57
-53 127 -44 136 17 215 121 215 282 0 147 -62 243 -177 275 -59 17 -164 23
-176 10z"/>
<path d="M3550 3075 c-17 -21 -9 -459 9 -497 14 -27 73 -58 112 -58 12 0 32
-9 46 -20 23 -18 41 -20 155 -20 106 0 130 3 134 15 6 14 -277 452 -359 558
-31 40 -74 50 -97 22z"/>
<path d="M6298 2862 l-207 -2 -19 -43 c-48 -102 -55 -124 -56 -178 -1 -72 17
-94 90 -110 30 -7 61 -20 70 -31 15 -16 33 -18 145 -18 111 0 133 3 161 20 18
11 43 20 56 20 33 0 80 26 87 49 8 26 -1 61 -37 151 -41 104 -59 138 -72 142
-6 2 -104 2 -218 0z"/>
<path d="M3800 2011 c-166 -63 -259 -192 -259 -361 0 -165 81 -278 291 -405 9
-5 38 -21 65 -35 242 -125 321 -207 310 -323 -5 -60 -47 -123 -102 -154 -32
-18 -56 -23 -122 -23 -72 0 -92 4 -147 30 -113 54 -226 204 -250 331 -7 40
-29 65 -46 54 -6 -4 -10 -87 -10 -234 0 -190 3 -231 15 -241 12 -10 20 -6 47
24 28 32 37 36 79 36 26 0 60 -6 76 -14 89 -45 117 -51 238 -51 104 0 127 3
175 24 114 49 200 137 237 244 22 63 28 160 13 225 -31 130 -130 231 -335 342
-130 70 -152 82 -187 103 -44 26 -107 83 -131 117 -11 16 -17 44 -17 81 0 46
5 63 29 96 81 112 269 108 391 -8 63 -60 104 -128 131 -215 13 -41 25 -64 35
-64 12 0 14 31 12 218 -2 133 -7 217 -13 217 -5 0 -20 -19 -33 -42 -28 -52
-49 -54 -125 -17 -102 50 -157 64 -242 63 -49 0 -97 -7 -125 -18z"/>
<path d="M6069 2010 c-85 -23 -171 -64 -234 -110 -55 -41 -156 -146 -177 -184
-83 -154 -108 -246 -108 -396 0 -283 132 -496 385 -617 109 -53 140 -58 340
-57 159 1 203 4 266 22 131 35 218 68 231 87 4 5 8 82 8 171 0 90 5 175 11
192 12 36 64 72 103 72 16 0 26 5 26 15 0 13 -40 15 -301 15 -236 0 -300 -3
-297 -12 3 -7 23 -16 47 -19 58 -8 94 -38 103 -85 9 -52 10 -336 0 -349 -16
-22 -109 -45 -183 -45 -184 0 -307 94 -365 279 -20 60 -44 247 -44 336 0 145
34 321 83 421 32 67 102 144 157 173 62 32 160 45 238 31 162 -30 290 -142
369 -325 12 -27 27 -50 35 -50 19 0 19 446 1 452 -7 3 -16 -4 -20 -14 -4 -10
-16 -30 -27 -45 -26 -37 -72 -37 -162 1 -123 51 -172 61 -300 60 -81 -1 -140
-7 -185 -19z"/>
<path d="M597 1994 c-13 -13 5 -24 40 -24 48 0 95 -24 116 -59 15 -26 17 -78
17 -576 0 -532 -1 -549 -20 -580 -23 -38 -31 -42 -100 -51 -34 -4 -50 -11 -50
-21 0 -13 52 -14 378 -10 352 4 381 5 440 25 91 31 165 68 203 102 19 16 37
30 41 30 11 0 111 137 124 170 3 8 12 29 19 45 35 81 45 144 45 286 0 111 -4
159 -19 209 -70 245 -216 387 -456 441 -69 16 -128 19 -426 19 -190 0 -349 -3
-352 -6z m622 -75 c78 -14 126 -42 173 -101 59 -73 88 -141 113 -263 21 -99
16 -414 -7 -510 -48 -195 -162 -305 -316 -305 -54 0 -70 4 -89 22 l-23 21 0
567 c0 312 3 570 7 573 10 10 68 8 142 -4z"/>
<path d="M2097 1994 c-13 -13 5 -24 38 -24 46 0 81 -15 110 -46 l25 -27 0
-560 0 -560 -25 -33 c-21 -28 -32 -33 -85 -39 -39 -5 -60 -11 -57 -19 6 -17
1060 -21 1075 -3 6 7 16 60 22 118 6 57 15 124 20 149 20 95 4 181 -20 113
-49 -133 -118 -230 -192 -268 -87 -44 -140 -55 -259 -55 -113 0 -117 1 -143
27 -14 14 -29 36 -32 47 -2 12 -3 127 -2 256 l3 235 28 3 c16 2 51 -5 79 -15
79 -28 132 -114 157 -251 3 -18 11 -33 16 -32 14 0 19 670 5 684 -11 11 -9 14
-35 -94 -20 -87 -37 -124 -73 -162 -29 -31 -108 -61 -149 -56 l-28 3 -3 250
c-1 138 0 260 3 273 5 21 10 22 98 22 183 -1 282 -27 344 -92 38 -41 48 -60
77 -151 13 -39 29 -73 35 -75 7 -2 11 57 13 182 2 103 2 191 0 196 -4 11
-1034 15 -1045 4z"/>
<path d="M4657 1994 c-13 -13 5 -24 40 -24 44 0 100 -26 116 -54 9 -16 12
-161 12 -588 l0 -566 -23 -25 c-17 -18 -39 -27 -78 -32 -37 -4 -54 -11 -54
-21 0 -12 45 -14 310 -12 308 3 370 11 263 33 -61 13 -87 31 -101 74 -17 49
-15 1072 2 1120 15 41 65 71 118 71 27 0 38 4 38 15 0 13 -42 15 -318 15 -175
0 -322 -3 -325 -6z"/>
<path d="M7100 1986 c0 -8 15 -17 38 -21 27 -5 51 -21 90 -62 l52 -55 -1 -506
c0 -458 -2 -511 -18 -550 -19 -49 -62 -82 -106 -82 -36 0 -60 -14 -51 -29 9
-14 412 -15 421 -1 7 11 -35 30 -67 30 -39 0 -84 45 -102 102 -14 47 -16 104
-14 483 2 268 7 430 13 430 5 0 49 -52 97 -115 49 -63 112 -146 141 -183 28
-38 57 -74 63 -80 5 -7 79 -104 164 -217 135 -179 234 -309 328 -429 15 -19
32 -41 38 -50 10 -13 14 -13 28 -2 13 11 16 83 18 628 l3 615 33 29 c18 16 53
35 77 41 87 24 44 33 -163 36 -175 2 -202 0 -202 -13 0 -9 9 -15 25 -15 47 0
104 -31 127 -69 22 -35 23 -44 26 -358 4 -302 3 -323 -14 -330 -10 -4 -19 -2
-22 5 -2 7 -9 18 -16 25 -6 6 -28 35 -48 64 -20 28 -43 60 -52 70 -8 10 -116
154 -241 321 l-226 302 -219 0 c-181 0 -220 -2 -220 -14z"/>
</g>
</svg>
